<svg width="32" height="32" viewBox="0 0 32 32" fill="none" xmlns="http://www.w3.org/2000/svg">
<rect width="32" height="32" fill="white"/>
<path d="M16.1371 12L13.4486 19.7605H11.4059L9.59791 14.5055L7.73124 19.7605H5.70021L3 12H4.97233L6.82726 17.4545L8.76436 12H10.5254L12.4038 17.4989L14.3174 12H16.1371Z" fill="#141417"/>
<path d="M19.1472 13.7073C20.1256 13.7073 20.8769 13.929 21.4013 14.3725C21.9257 14.8086 22.1879 15.4701 22.1879 16.357V19.7605H20.4739V19.0177C20.1295 19.5721 19.4877 19.8492 18.5485 19.8492C18.0632 19.8492 17.6406 19.7716 17.2806 19.6164C16.9284 19.4612 16.6584 19.2469 16.4705 18.9734C16.2827 18.6999 16.1888 18.3895 16.1888 18.0421C16.1888 17.4878 16.4079 17.0517 16.8462 16.7339C17.2923 16.4161 17.9772 16.2572 18.9007 16.2572H20.3565C20.3565 15.8803 20.2352 15.592 19.9925 15.3925C19.7499 15.1855 19.386 15.082 18.9007 15.082C18.5642 15.082 18.2315 15.1338 17.9028 15.2372C17.5819 15.3333 17.308 15.4664 17.081 15.6364L16.4236 14.4279C16.7679 14.1988 17.1788 14.0214 17.6563 13.8958C18.1415 13.7701 18.6385 13.7073 19.1472 13.7073ZM19.0064 18.6851C19.3194 18.6851 19.5973 18.6186 19.8399 18.4856C20.0825 18.3452 20.2547 18.1419 20.3565 17.8758V17.2661H19.1003C18.3489 17.2661 17.9732 17.4989 17.9732 17.9645C17.9732 18.1863 18.0632 18.3636 18.2433 18.4967C18.4311 18.6223 18.6855 18.6851 19.0064 18.6851Z" fill="#141417"/>
<path d="M30 13.796L27.1472 20.1264C26.8576 20.8137 26.4976 21.2979 26.0671 21.5787C25.6444 21.8596 25.1318 22 24.5291 22C24.2004 22 23.8756 21.952 23.5547 21.8559C23.2338 21.7598 22.9716 21.6268 22.7681 21.4568L23.4373 20.2262C23.5782 20.3444 23.7386 20.4368 23.9187 20.5033C24.1065 20.5698 24.2904 20.6031 24.4704 20.6031C24.7209 20.6031 24.9244 20.544 25.0809 20.4257C25.2375 20.3149 25.3783 20.1264 25.5036 19.8603L25.527 19.8049L22.7916 13.796H24.6818L26.4545 17.8426L28.239 13.796H30Z" fill="#141417"/>
<path fill-rule="evenodd" clip-rule="evenodd" d="M27.1472 20.1264L30 13.796H28.239L26.4545 17.8426L25.979 18.8514L25.5036 19.8603C25.3783 20.1264 25.2375 20.3149 25.0809 20.4257C24.9244 20.544 24.7209 20.6031 24.4704 20.6031C24.2904 20.6031 24.1065 20.5698 23.9187 20.5033C23.7386 20.4368 23.5782 20.3444 23.4373 20.2262L22.7681 21.4568C22.9716 21.6268 23.2338 21.7598 23.5547 21.8559C23.8756 21.952 24.2004 22 24.5291 22C25.1318 22 25.6444 21.8596 26.0671 21.5787C26.4976 21.2979 26.8576 20.8137 27.1472 20.1264Z" fill="#F17D4B"/>
</svg>
