<svg width="1444" height="1089" fill="none" xmlns="http://www.w3.org/2000/svg"><path d="M556.849 6.004c2.275 3.313 6.413 9.524 9.309 14.08l5.171 8.074-6.619 5.59c-7.654 6.418-8.068 7.453-2.483 8.903 2.276.62 4.137 2.691 4.137 4.554 0 7.04 25.858 36.647 41.372 47.413l5.172 3.727-7.24-1.45c-8.275-1.656-21.927-8.281-23.789-11.387-1.862-3.105-15.308-9.524-23.582-11.387l-6.826-1.45.62 11.802c.621 9.11 0 12.422-2.482 14.079-4.758 3.105-17.79 0-19.031-4.555-1.655-6.211-27.926-9.11-35.373-3.727-3.31 2.485-3.31 3.934-1.241 15.942 4.551 24.845-2.069 48.862-14.274 51.761-7.653 1.863-7.447 5.176.828 11.594 6.619 4.969 7.447 6.625 6.412 12.008-2.068 9.938-11.17 19.876-23.168 25.259l-11.17 4.97v11.801c0 6.625-1.448 18.22-3.517 25.673-3.31 13.458-3.31 13.872 1.241 26.915 12.205 33.541 11.378 30.021 6.827 37.268l-4.138 6.625 5.999 12.63c3.31 7.039 5.999 15.942 5.999 19.669 0 11.801 7.24 17.184 41.165 30.435 16.549 6.625 30.409 12.008 30.616 12.215.413.207-2.276 5.59-5.792 12.009-7.447 13.871-17.997 42.236-20.48 54.866-2.068 11.594-.413 12.215 21.514 7.867 23.375-4.555 38.476-4.762 40.958-.621 1.241 2.278 3.517 3.106 7.447 2.278 3.93-.829 10.55 1.449 22.961 7.66l17.377 8.696 19.858-3.52c10.964-2.07 29.581-5.797 41.579-8.696 26.271-6.004 34.959-6.211 45.509-.828 9.722 4.969 10.136 3.934 4.137-13.458-2.275-6.832-3.516-14.078-2.896-16.977.828-2.898 9.723-12.215 20.686-21.739l19.445-16.771-25.444-26.294c-26.892-28.158-38.889-45.135-39.096-56.108-.207-5.383 1.241-8.075 7.033-13.044 9.722-8.281 52.749-30.849 69.918-36.232 16.963-5.59 27.926-12.837 32.271-21.325 4.344-8.282 3.102-22.775-4.345-53.417-6.826-28.572-12.618-42.651-21.513-52.381l-7.24-8.075 3.723-9.524c8.895-23.603 8.275-40.373-2.068-60.87-5.585-11.18-11.171-14.907-19.238-13.458-3.517.828-7.654-.207-10.964-2.277-23.995-16.357-25.236-16.77-30.408-15.529-9.309 2.07-38.062 17.806-46.337 25.26-7.033 6.418-8.481 6.832-17.169 5.59-18.617-2.485-22.961-9.938-10.136-17.599 12.618-7.453 9.722-9.524-16.342-11.18-9.929-.828-15.101-2.07-16.962-4.348-1.242-1.863-5.172-3.313-8.482-3.313-8.688 0-9.929-2.277-3.723-7.039 10.136-8.075 1.034-15.114-26.064-19.876-7.24-1.242-15.515-2.899-18.411-3.52L553.125 0l3.724 6.004z" fill="#FBF8F8"/><path d="M436.839 108.523c-11.383 2.698-16.143 10.999-14.901 25.528.207 2.075 3.104 6.018 6.416 8.924 6.829 5.811 13.245 20.132 11.589 25.943-2.276 7.057-13.245 14.321-21.523 14.321-11.797 0-15.522-5.396-16.35-23.453-.414-8.302-1.035-16.188-1.449-17.434-1.655-5.188-6.829-.207-9.106 8.302-1.035 4.981-7.657 20.132-14.487 34.038l-12.417 25.32 16.97 3.528 16.764 3.736-14.073 6.642c-7.865 3.736-14.487 7.056-14.901 7.471-.207.415 5.795.415 13.866 0 13.659-.83 14.901-.622 28.353 7.68 7.657 4.566 16.971 9.547 20.903 10.792 6.415 2.283 7.45 2.075 11.175-2.491 3.312-4.151 3.726-6.849 2.691-16.396-2.691-22.415-3.104-20.754 7.45-24.905 13.246-4.981 20.903-10.792 25.456-19.509l3.932-7.472-6.622-6.849c-8.072-8.302-8.072-9.755-1.242-16.189 8.071-7.264 17.384-22.622 17.384-28.433 0-6.642-9.934-16.189-19.868-18.887-9.313-2.49-25.455-2.698-36.01-.207z" fill="#FBF8F8"/><path d="M370.72 243.561c-18.808 7.71-19.221 7.71-39.476 3.751-13.227-2.501-28.935 10.627-27.281 22.713.62 4.167 1.653 4.584 11.367 3.959 10.541-.417 10.954-.417 14.881 7.293 4.96 9.794 8.68 13.336 22.321 20.213 12.401 6.251 18.188 13.544 16.741 21.046-.62 2.917-.413 5.834.62 6.459 2.273 1.251 9.301-2.292 16.948-8.751 7.027-6.043 9.714-6.252 9.714-1.251 0 7.502 10.747 25.631 18.187 30.632 14.054 9.585 22.321 5.417 20.461-9.794-1.653-11.252 2.48-23.755 7.441-23.338 5.58.625 10.334-8.127 8.68-15.628-1.653-7.71-9.92-16.879-15.087-16.879-5.581 0-8.061-3.542-9.714-14.586-1.86-11.253-5.167-15.629-17.774-21.88-5.167-2.709-10.541-6.46-11.988-8.127-3.72-4.375-4.547-4.375-26.041 4.168z" fill="#FBF8F8"/><path d="M275.738 270.207c-9.928 4.967-13.444 9.727-13.651 17.799-.207 22.974-13.652 40.981-42.402 56.297-17.375 9.314-18.616 10.556-19.236 17.179-1.034 10.969-3.309 12.211-20.891 12.211-21.097 0-36.196-4.139-41.781-11.177-2.275-3.104-7.86-7.451-12.41-9.52-9.308-4.761-9.929-3.726-4.965 10.141 1.655 4.968 4.551 16.972 6.206 26.7 1.861 9.935 3.93 19.662 4.343 21.525 1.034 3.105-.207 3.726-7.86 3.726-9.307 0-30.405 2.897-38.265 5.381-3.516 1.035-6.825-1.035-15.72-9.314-11.996-11.383-14.064-12.211-18.201-7.244-4.758 5.795-14.893 9.728-30.612 11.384-9.101 1.034-16.754 3.104-18.616 4.967-2.896 2.898-2.482 3.725 4.757 9.728 7.86 6.416 7.86 6.623 6.826 18.627l-1.034 12.005h6.826c3.723 0 14.685 3.311 24.2 7.451 9.307 4.139 23.786 9.107 31.646 10.969 13.445 3.312 14.479 3.933 14.479 9.314.207 3.933 2.895 8.072 8.894 13.66 6.825 6.416 8.687 9.521 8.687 15.109 0 10.763 9.928 23.802 27.303 35.807l15.099 10.348-.621 14.488c-2.068 49.26-9.514 101.624-18.822 131.221-5.378 17.179-5.378 18.007.827 19.456 3.723 1.035 5.171 2.69 5.171 6.416 0 11.176 26.269 19.662 60.604 19.662 37.645 0 58.328 4.554 71.566 15.73 8.067 6.623 20.684 8.486 32.267 4.554 8.687-2.898 11.997-7.451 15.513-21.733 2.689-10.762 12.203-20.49 28.957-29.39 17.581-9.52 26.889-8.9 64.12 3.105 16.547 5.381 32.474 10.142 35.369 10.556 7.033 1.241 14.272-2.484 32.06-17.386 8.067-6.623 17.582-13.66 21.098-15.523 6.205-3.312 14.892-14.695 14.892-19.249 0-1.448-2.895-1.862-7.032-1.448-5.378.62-8.481-.621-14.479-6.003-10.135-8.693-13.651-16.144-13.651-28.148-.207-5.381-1.448-12.211-3.103-15.109-4.55-7.865-3.723-9.728 5.378-15.937 9.308-6.209 9.308-6.209 1.655-26.079-3.723-9.934-4.137-13.039-2.276-16.143 3.517-5.589 3.103-10.142-2.068-17.8-5.998-8.693-10.135-8.486-24.407.414-6.205 3.725-11.583 6.623-11.996 6.416-.207-.414 1.447-3.932 3.723-8.072 2.895-4.76 3.93-9.107 3.102-12.418-1.034-4.14 0-6.21 5.792-10.556 3.93-3.105 7.86-7.865 8.48-10.556.827-2.897 5.585-9.934 10.756-15.729 4.964-5.796 9.721-13.04 10.548-16.351.621-4.14 2.896-6.623 6.826-8.072 7.033-2.277 10.135-7.865 17.168-30.632 3.102-9.107 7.86-22.767 10.755-30.011 7.446-17.386 9.101-23.595 7.446-25.665-.62-1.035-6.825-3.933-13.651-6.209-6.826-2.484-23.579-9.107-37.438-14.902-13.651-5.589-30.405-11.591-37.231-13.04-8.48-1.862-17.167-6.209-28.75-14.074-18.409-12.418-27.303-16.765-34.956-16.765-6.205 0-8.067-2.483-9.514-13.453-1.035-7.658-1.448-8.279-9.722-9.727-11.583-1.863-20.27-8.693-25.648-19.663l-4.343-8.9-10.135 1.242-10.342 1.449-3.31-8.693c-2.896-7.451-4.137-8.486-9.721-8.486-3.516.207-9.928 1.863-14.479 4.14zM797.195 276.382c-31.243 8.454-72.212 28.452-81.729 39.792-6.415 7.422-5.794 12.783 2.689 24.947 13.863 20.411 55.246 61.646 68.695 68.45 9.311 4.742 11.794 3.917 25.036-8.659l12.415-11.752 9.725 2.68c5.379 1.649 14.483 4.123 20.07 5.773 15.518 4.536 50.693 6.185 53.59 2.474 1.448-1.856 6-2.887 11.794-2.887 12.001 0 25.657-8.453 30.002-18.761 2.276-5.155 6.621-9.484 15.311-14.845 15.726-9.69 16.346-14.226 2.897-23.71-12.621-9.072-50.279-28.246-55.245-28.246-2.276 0-6.621 2.268-10.139 5.155-3.31 2.886-7.035 5.154-8.069 5.154-3.725 0-22.554-19.174-23.795-24.122-1.655-5.98-8.277-9.484-24.416-13.196-9.104-2.268-12.414-3.917-13.863-7.628-1.448-3.917-3.31-4.536-11.587-4.33-5.586 0-15.932 1.65-23.381 3.711z" fill="#FBF8F8"/><path d="M441.68 327.595c-3.897 9.271.217 28.016 6.496 30.233 4.764 1.613 11.693-6.248 11.693-13.302 0-11.086-14.941-24.993-18.189-16.931zM995.501 361.959c-5.768 4.53-7.416 4.942-10.918 2.883-2.472-1.442-6.592-2.06-10.3-1.236-7.416 1.648-20.188 12.562-20.188 17.298 0 7.414-24.514 24.712-35.226 24.918-5.768 0-14.007 8.238-15.243 15.239-2.472 13.18 10.093 32.332 26.779 40.363 8.446 4.119 10.094 4.119 25.75 1.854 16.48-2.266 22.66-5.355 22.66-11.327 0-3.706 6.386-6.384 18.952-8.031 5.153-.618 10.713-2.677 12.153-4.325 1.65-2.059 5.56-3.089 10.92-2.883 13.18.618 13.39.412 21.83-8.649 6.6-7.208 9.48-8.855 17.93-9.885 13.8-1.441 33.16 1.03 37.49 4.943 5.77 5.148 11.74 3.912 18.13-3.913 5.35-6.59 18.54-35.42 16.89-36.656-.41-.412-7.21-3.501-15.25-7.002-31.72-13.797-51.7-14.209-74.16-1.647-16.68 9.267-21.42 8.855-25.13-1.854-3.29-9.679-8.24-15.651-12.77-15.651-1.85 0-6.385 2.472-10.299 5.561zM811.441 406.824c-13.065 10.749-17.628 12.403-25.716 9.509-11.407-4.341-16.177-2.687-34.012 11.162-18.665 14.676-19.495 16.536-13.895 32.039 3.733 10.749 3.94 20.05.622 21.291-1.452.413-6.014-.414-9.955-2.067-9.954-4.134-21.568-3.721-41.892 1.24-9.54 2.274-25.509 5.788-35.879 7.441-10.162 1.861-21.361 3.928-24.472 4.548-3.525.62-9.125-.414-13.895-2.481-11.406-5.167-14.517-3.307-14.517 8.268 0 7.442 1.244 10.749 5.392 14.883 5.392 5.375 6.429 5.375 21.983 1.654 4.148-1.034 7.052-.207 11.2 2.894 6.843 5.374 11.199 5.374 19.909.206 6.844-3.927 32.767-10.748 42.929-11.162 3.733-.206 6.844 2.067 11.407 8.475 7.673 10.336 17.421 15.296 39.611 20.257 24.68 5.375 47.492 4.961 74.868-1.447 42.307-9.921 54.543-18.81 54.958-39.894.415-16.949 1.867-20.257 13.066-25.424l10.162-4.961-1.245-12.609c-1.659-16.33-6.844-33.693-11.614-38.447-2.281-2.274-8.295-4.134-15.968-4.961-6.637-.62-17.836-3.101-24.472-5.581-19.08-6.615-25.302-5.788-38.575 5.167z" fill="#FBF8F8"/><path d="M1060.68 424.757c-4.53 1.034-11.34 4.963-16.92 10.133-8.46 7.859-10.52 8.686-19.8 8.686-5.58 0-10.32.827-10.32 1.861 0 2.482-11.56 6.411-18.571 6.411-5.365 0-12.381 5.377-12.381 9.72 0 4.549-13.618 7.858-32.189 7.858-17.332 0-19.396-.414-27.443-5.997-4.746-3.309-8.873-5.584-9.079-5.17-.413.413-2.27 3.515-4.333 6.617-2.064 3.309-6.809 7.238-10.73 8.893-5.571 2.275-7.015 3.929-5.984 6.824.619 2.068-.206 4.963-2.063 6.411-1.651 1.448-4.54 7.859-6.397 14.063-4.539 15.716-2.888 31.02 4.746 41.773 7.635 11.168 31.364 26.885 52.204 34.95 15.476 5.997 17.126 6.411 22.285 3.516 17.332-9.72 24.761-11.581 81.505-21.921 34.87-6.204 34.46-5.998 40.44-27.919 4.95-18.819 44.98-71.346 54.06-71.346 7.43 0 6.61-4.963-2.27-12.822-8.25-7.445-24.35-14.062-33.84-14.062-2.27 0-5.98-1.861-8.46-4.136-4.95-4.55-22.49-6.825-34.46-4.343zM1328.51 430.71c-6.81 1.449-8.67 2.692-7.85 5.177 2.48 6.627 35.12 59.853 41.53 67.93 8.47 10.769 8.88 12.633 11.57 51.776 1.03 18.225 2.89 33.965 3.92 35 3.51 3.521 11.98-7.041 22.73-28.166 5.78-11.183 12.19-21.124 14.46-22.367 2.06-1.036 7.85-1.45 12.81-.828 7.02 1.035 9.91.414 12.6-2.279 4.54-4.556 4.54-10.769-.21-12.219-2.07-.621-6.2-6.42-9.3-12.84-3.3-6.42-9.5-16.154-14.04-21.539-9.3-10.976-9.71-13.876-3.72-21.538 5.37-6.835 3.92-11.391-4.34-13.048-3.51-.621-7.23-2.899-8.47-4.97-1.45-2.9-4.34-3.935-9.92-3.935-5.16 0-8.47-1.036-9.09-3.107-1.65-4.142-14.87-10.355-27.88-13.254-12.4-2.486-12.61-2.486-24.8.207z" fill="#FBF8F8"/><path d="M1298.93 444.85c-7.87 6.187-33.13 17.119-49.48 21.451-15.73 3.919-16.77 3.919-21.53.412-11.17-7.838-13.87-8.663-22.15-7.631-4.55.618-16.14-.413-25.46-2.063-9.52-1.856-19.25-2.681-21.73-1.856-2.49.618-9.32 4.95-15.32 9.488-6 4.537-11.59 7.631-12.83 7.012-2.7-1.65-23.4 30.733-35.4 55.484-11.59 23.514-14.49 27.02-32.5 35.889-7.25 3.507-13.04 6.807-13.04 7.219 0 .207 3.72 4.332 8.28 9.076 4.55 4.537 8.28 9.9 8.28 11.757 0 6.806 6.41 15.469 14.49 19.594 8.9 4.538 13.45 10.932 11.59 15.882-3.52 8.869 14.9 21.039 32.09 21.245 15.93 0 28.35 6.188 19.45 9.488-4.96 2.062-3.72 5.569 5.18 14.232 5.59 5.362 8.28 9.9 8.28 13.613 0 5.775 3.93 8.044 14.49 8.044 2.9 0 10.97 2.062 17.59 4.331 10.97 3.919 15.32 4.332 38.3 3.3 30.43-1.443 36.64-2.887 60.03-14.438 15.94-7.838 19.04-8.663 32.09-8.456 19.04.206 37.67 5.775 44.29 13.407 4.14 4.537 7.04 5.981 13.04 5.981 8.49 0 12.01-3.919 12.01-13.613 0-14.026 13.66-54.452 18.42-54.452 1.04 0 3.52 2.062 5.39 4.537 2.89 4.538 3.52 4.538 8.69 1.65 3.11-1.856 7.87-6.394 10.35-10.106 4.35-6.188 4.55-7.632 1.86-11.345-3.93-6.187-15.94-6.806-24.84-1.444-9.73 5.982-24.01 5.776-29.6-.412-6-6.6-6.42-8.663-9.93-44.346-1.87-17.738-4.35-36.095-5.39-40.633-4.55-16.501-33.94-68.272-45.54-80.028-6.41-6.188-13.24-7.013-19.45-2.269zM549.53 478.332c-23.607 2.925-38.725 6.477-48.664 11.283-11.804 6.058-29.613 24.862-32.927 35.099-1.656 5.015-4.763 8.984-8.697 10.865-10.561 5.641-6.627 10.237 8.49 10.446 8.076 0 9.733.836 13.461 6.895 13.046 21.31 11.803 20.266 23.193 20.266 13.046-.209 20.501-3.97 23.193-11.7 2.071-5.85 13.046-14.416 18.431-14.416 1.449 0 3.934 3.134 5.591 6.894 1.656 3.97 4.349 8.148 6.005 9.611 4.763 3.97 12.218-1.463 20.087-14.416 3.521-5.85 7.455-10.446 8.698-10.446 1.449 0 4.763 1.88 7.662 4.178s6.212 4.179 7.248 4.179c3.106 0 16.773-11.7 21.743-18.804l4.349-6.268-9.319 1.254c-8.697 1.253-9.94.836-16.566-5.85-6.834-6.895-11.597-18.595-11.597-28.414 0-2.716-1.035-6.686-2.071-8.984-2.485-4.388-11.803-4.805-38.31-1.672z" fill="#FBF8F8"/><path d="M671.019 518.463c-3.729 1.032-10.151 4.13-14.502 7.021-5.8 3.923-9.53 4.956-15.123 4.13-7.044-1.033-7.666-.62-9.116 5.163-.621 3.51-3.522 7.847-6.422 9.499-2.693 1.858-4.972 5.163-4.972 7.434 0 5.369-8.287 9.293-15.538 7.434-3.108-.826-7.873-3.717-10.98-6.814l-5.387-5.37-5.593 6.402c-5.387 5.989-10.152 17.966-10.152 25.607 0 6.608-5.179 3.924-19.059-9.706-15.331-15.281-20.303-16.933-20.303-6.608 0 10.119-5.594 13.836-26.311 18.379-9.944 2.065-19.06 4.75-20.096 5.782-1.45 1.446-.621 5.163 2.486 11.358 2.487 5.163 4.558 10.738 4.558 12.184 0 1.652-3.729 5.989-8.287 9.499-4.557 3.511-8.286 7.434-8.286 8.467 0 1.032 2.693 6.195 6.215 11.771l6.008 9.706-4.351 3.51-4.558 3.304 5.387 8.054c5.179 7.847 16.366 15.075 22.996 15.075 4.35 0 7.872 5.163 6.422 9.086-2.693 7.021 6.63 2.891 25.897-11.771 10.772-8.053 20.924-15.694 22.374-16.52 3.936-2.478 39.57 14.868 49.721 24.161 8.701 7.847 13.674 19.412 16.988 39.856 1.865 12.597 5.594 17.759 35.427 49.974 23.617 25.607 48.478 47.91 60.079 53.898 3.937 2.065 12.845 4.75 19.682 6.196 19.267 3.923 26.518 7.64 36.876 18.585 5.387 5.576 12.223 10.738 15.331 11.564 10.773 2.272 14.087 5.163 20.303 16.934 4.972 9.499 8.079 12.597 16.573 16.934 7.459 3.717 11.602 7.64 15.331 14.248 6.008 10.739 14.295 34.693 16.988 48.529 1.657 9.293 1.45 10.945-3.522 17.966-6.008 8.88-10.98 21.266-11.187 28.296 0 5.57 7.665 9.5 12.016 5.98 5.593-4.54 15.331-20.646 18.645-30.765 2.901-9.086 4.972-11.564 12.845-16.107 8.08-4.75 9.323-6.402 9.944-13.217.622-7.228-.207-8.88-12.016-19.824l-12.637-12.184 3.314-7.435c1.658-4.13 7.873-13.629 13.674-20.857 12.43-15.488 15.952-16.314 32.111-7.227 9.945 5.782 21.961 17.346 24.239 23.335.622 2.065 2.072 1.652 5.594-1.652 4.351-4.13 4.351-4.75 1.243-10.739-4.765-9.292-24.653-24.574-55.936-42.953-32.526-19.205-44.128-27.052-45.785-31.389-.622-1.652.829-5.162 3.522-8.054 7.251-7.64 2.693-9.912-20.717-9.912-19.474 0-20.717-.206-32.319-7.228-15.745-9.292-28.383-25.4-36.462-46.463-14.088-36.345-20.303-44.399-42.056-54.931-9.323-4.543-9.737-4.543-12.638-.826-5.179 7.021-8.908 2.478-10.358-12.803-3.729-37.172-3.729-41.302-1.45-42.747 2.9-1.859 2.9-11.978-.207-22.096-3.73-12.804-.829-16.521 21.131-25.607 10.566-4.337 20.51-9.293 21.96-10.945 3.729-3.717 3.729-23.129 0-32.215-2.486-5.989-4.558-7.434-16.988-11.358-13.466-3.923-17.195-5.988-30.247-15.281-6.215-4.337-22.582-6.195-32.319-3.717z" fill="#FBF8F8"/><path d="M846.684 533.65c-14.119 4.587-38.203 9.382-64.364 12.51-19.932 2.71-23.462 12.093-12.458 33.985 9.759 19.598 19.932 25.853 27.822 17.096 4.776-5.212 9.551-5.212 19.932.209 10.589 5.212 13.081 4.378 13.081-4.587.207-6.047 1.246-7.506 8.097-10.634 4.153-2.084 7.682-5.003 7.89-6.463 0-1.251.208-5.629.415-9.591.416-6.255 2.077-8.548 12.458-16.471 25.33-19.39 19.724-26.479-12.873-16.054z" fill="#FBF8F8"/><path d="M863.802 553.942c-8.046 3.728-11.76 10.149-10.109 18.019 1.444 7.042-.206 12.22-3.92 12.22-1.444 0-5.158 4.142-8.252 9.527-8.252 14.083-22.075 16.983-30.327 6.42-2.888-3.728-3.92-3.935-6.602-1.657-5.158 4.35-3.92 11.599 3.92 21.126 9.077 10.77 10.521 13.255 12.172 22.782.825 4.557 4.745 11.392 9.696 17.191 7.427 8.491 8.253 10.355 7.221 16.776-1.238 6.42-.619 8.077 7.633 16.155 13.41 13.669 25.582 19.883 41.881 21.954 7.839 1.035 14.441 1.657 14.441 1.449.206 0-8.046-12.426-18.568-27.338-19.805-28.375-32.183-50.95-32.183-58.613 0-2.486 1.031-6.421 2.063-8.699 2.063-3.521 4.538-3.935 24.344-3.935 36.722 0 87.886 5.592 100.058 10.77 5.777 2.485 10.728 3.728 11.141 2.692 3.301-10.356 8.252-16.569 12.999-16.569 7.22 0 8.04 6.628 1.03 9.32-4.539 1.657-4.952 2.693-3.095 6.006 1.035 2.279 3.095 4.764 4.125 5.385 3.1 1.864 2.27 13.877-1.03 18.433-5.364 7.042-3.714 13.877 5.78 23.611l8.66 8.906-7.22 6.006-7.22 5.8 5.78 5.384c4.74 4.35 5.36 6.007 3.5 9.528-1.23 2.485-4.33 4.142-7.22 4.142-3.3 0-6.805 2.485-10.519 7.249-3.713 4.971-7.014 7.249-9.696 6.835-3.301-.415-4.745 1.035-5.983 6.42-1.238 4.349-3.507 7.249-6.189 8.078-3.507.828-3.92 2.071-2.889 9.32 1.651 9.527 15.061 31.067 20.012 32.102 2.063.414 7.427-3.521 12.374-9.113 4.96-5.178 11.15-10.356 13.62-11.391 10.52-3.935 34.87 9.734 37.14 21.125.61 3.521 2.47 6.835 4.12 7.457 1.65.621 9.08-1.657 16.71-5.178 10.11-4.764 19.19-7.042 33.42-8.699 23.32-2.485 27.03-5.385 25.38-18.64-1.03-7.663-.41-8.906 8.46-17.605 10.11-10.148 11.35-12.841 6.39-14.705-4.95-1.864-14.85-18.847-17.53-29.617-2.06-8.492-1.86-11.184.82-16.569 3.72-7.042 4.34-24.439 1.24-29.203-1.86-2.692-2.89-2.278-6.81 2.485-2.68 3.314-5.36 5.8-5.98 5.8-.82 0-7.43-4.143-14.65-9.321-9.07-6.213-14.03-11.391-15.68-15.947-5.15-13.67-8.87-19.469-17.33-25.682-6.19-4.764-9.69-9.32-12.17-16.569-2.06-6.007-7.01-13.463-11.96-18.433-7.43-7.249-9.49-8.285-18.16-8.078-12.38 0-31.77 4.35-36.722 8.078-3.713 2.692-3.713 3.106-.206 16.776 3.094 12.012 3.094 14.498.825 16.983-4.951 4.971-9.696-2.278-9.696-14.912 0-10.563-2.476-15.741-7.427-15.741-1.238 0-2.889 1.864-3.508 4.143-2.475 9.527-27.645 2.485-63.336-17.605-26.819-14.912-34.659-17.19-44.768-12.634z" fill="#FBF8F8"/><path d="M855.451 620.532c-2.922 2.884-1.252 11.536 4.592 23.072 10.435 20.189 34.645 54.18 46.959 65.716 6.469 6.18 11.687 12.772 11.687 14.626 0 6.799 12.105 20.395 27.34 31.107 8.349 5.562 16.279 10.301 17.532 10.301 1.878 0 2.295-2.679 1.669-9.065-1.669-14.832 11.688-34.403 21.08-30.9 2.713 1.03 3.13-.207 2.713-6.799-.418-7.416 0-7.828 5.844-8.446 11.683-1.03 12.313-1.854 7.303-9.476-2.921-4.944-4.173-9.888-3.756-15.657.209-6.18-.626-9.27-2.921-10.506-7.096-3.914-6.053-22.454 1.461-22.454 3.336 0 6.466-8.653 4.176-12.155-.84-1.442-4.594-1.854-9.185-1.03-5.844.824-10.227 0-16.488-3.09-11.061-5.562-21.705-7.622-57.394-11.536-38.193-4.12-36.732-4.12-39.237 3.09-1.252 3.296-2.713 6.18-3.13 6.18-.626 0-3.757-3.296-7.305-7.21-6.261-7.004-10.018-8.652-12.94-5.768zM1138.65 684.189c-3.74 2.886-5.4 6.183-5.4 10.718 0 8.656 11.21 27.825 18.89 31.947 9.76 5.565 7.48 18.962-3.53 18.962-6.43 0-8.51 3.504-9.96 18.55-1.66 16.695.83 24.939 10.17 35.245 7.27 8.038 8.1 10.305 7.27 20.817-.21 4.328 1.04 6.389 4.98 8.038 4.36 2.061 8.72 1.649 23.05-1.855 22.84-5.771 30.73-5.771 47.76.619 17.86 6.801 36.13 7.213 49.42 1.442 7.27-3.091 10.59-6.389 14.95-14.427 9.34-16.901 29.9-24.115 44.64-15.665 6.85 4.122 11.63 2.886 14.74-4.122 3.33-7.008-1.66-16.695-8.51-16.695-6.23-.206-6.23-5.359.21-13.397 3.74-4.534 8.93-14.84 17.44-34.627 2.08-4.534 6.02-8.038 12.25-11.129 13.29-6.39 14.54-13.81 2.49-14.016-2.28 0-13.49-4.328-24.91-9.893-19.31-8.863-22.22-9.687-36.55-9.687-14.74 0-16.4.412-34.26 10.305l-18.69 10.306-36.34-.207c-53.98-.206-77.45-4.946-78.28-15.252 0-2.885-.2-6.389-.41-7.832-.21-3.71-5.19-3.091-11.42 1.855zM1014.14 772.671c-8.63 2.9-11.1 11.392-7.2 24.647 4.12 13.463 4.32 51.365.42 62.342-2.27 6.214-2.27 8.906 0 15.534 1.64 4.349 2.88 10.356 2.88 13.462 0 3.935 2.05 6.835 6.78 10.149 9.05 6.213 13.78 12.427 13.78 17.812 0 2.692.83 4.764 1.85 4.764 3.3 0 15.84-16.155 22.84-29.204 3.49-6.835 7.81-13.048 9.46-13.669 4.52-1.657 3.49-5.593-5.76-23.612-8.64-16.362-8.85-17.397-8.85-36.659 0-14.498-1.03-21.747-3.49-26.304-7.2-13.462-22.83-22.783-32.71-19.262z" fill="#FBF8F8"/><path d="M1084.12 791.013c-2.48 2.481-5.16 4.136-5.78 3.309-3.1-2.896-12.82 5.17-18.19 15.096-6.82 12.615-7.44 21.507-2.48 32.468 4.13 9.306 11.57 14.476 21.91 15.096 13.64 1.034 17.98 0 27.69-6.618 5.99-3.722 14.26-7.238 20.67-8.065 19.01-3.102 25.63-19.439 15.09-37.844-6.82-12.408-15.5-16.337-36.59-17.371-16.74-.828-18.39-.621-22.32 3.929zM1314.48 802.692c-9.06 3.94-13.79 11.613-11.94 19.702 1.03 4.355.41 8.088-1.85 11.406-7 10.784-1.86 32.353 9.05 38.367 6.39 3.526 11.94 1.452 24.3-9.125 12.97-11.199 20.17-13.48 50.43-15.347l23.06-1.659-13.38-6.429c-15.44-7.466-19.77-10.992-28-22.398-7.62-10.577-9.06-11.614-14.41-10.37-2.26.415-7.62-.829-11.73-3.111-8.86-4.77-16.27-5.184-25.53-1.036zM1192.09 832.325c-5.2 1.655-16.21 3.724-24.73 4.759-11.84 1.448-16.2 2.897-18.7 6.207-2.49 3.104-7.06 4.759-17.45 6.207-13.3 1.863-25.14 7.035-30.55 13.656-1.66 1.863-6.23 3.104-11.42 3.104-12.26 0-15.59 1.655-15.59 7.449 0 2.689-2.7 7.862-6.02 11.793-3.33 3.725-6.86 9.932-7.9 13.863-1.45 4.966-3.32 7.449-7.06 8.277-4.58 1.241-4.99 2.276-4.78 12.828.41 18.208 12.05 35.588 26.18 38.898l6.85 1.656-6.64 1.448c-10.19 2.276-11.85 5.38-7.9 14.691 4.99 12 7.69 13.035 32.62 13.242 12.26 0 27.22 1.034 33.25 2.276 14.13 2.896 46.33 18.411 57.14 27.721 4.57 3.94 8.93 6.63 9.56 6 2.07-2.06-2.5-15.51-7.48-22.13-5.2-6.626-14.34-13.454-39.9-29.592l-12.47-7.656 6.86-1.862c6.86-1.862 6.86-1.862 3.53-7.035-1.87-2.897-3.11-7.242-2.7-9.725.63-3.931 1.87-4.552 9.56-4.138 7.27.414 8.94-.207 8.31-2.897-.41-1.862-3.53-4.138-7.27-5.172-6.44-1.655-7.07-2.69-9.97-14.898-.63-3.517-3.12-8.69-5.41-11.793-2.07-3.104-3.94-7.656-3.94-9.932 0-5.173 4.36-15.932 8.93-21.932 3.12-3.931 3.32-3.931 4.78 2.069 2.08 9.104 6.86 13.449 14.54 13.449 12.68 0 16.83-2.897 18.29-13.035.83-5.173 3.32-10.966 5.61-12.828 4.78-4.552 37.4-11.173 54.02-11.38 6.24 0 16.42 1.448 22.44 3.31 6.03 1.655 14.34 2.897 18.5 2.483 7.27-.621 7.69-1.035 7.27-7.862-.21-3.932-1.66-8.07-3.53-9.518-1.87-1.242-11.43-2.897-21.4-3.518-10.19-.827-26.19-3.724-35.74-6.621-19.95-5.793-26.39-6.207-39.69-1.862z" fill="#FBF8F8"/><path d="M1103.55 999.989c-2.3 1.251-9.2 6.021-15.27 10.591l-10.87 8.31 12.55 13.09c12.13 12.47 14.85 17.87 10.45 20.57-3.13 1.87-2.51 12.67.84 15.37 2.3 2.08 4.18 2.08 7.53.21 6.48-3.53 9.62-1.45 15.69 10.39 2.92 5.61 6.06 10.38 6.9 10.38 1.04 0 3.34-3.53 5.44-7.68l3.76-7.9 3.97 4.99c2.31 2.7 5.23 4.36 7.12 3.53 5.02-1.87 3.76-14.75-3.35-30.75-3.56-7.89-5.86-14.95-5.23-15.78.63-.63 5.86 1.03 11.3 3.53 11.71 5.4 21.96 5.19 23-.63.63-3.11 0-3.74-3.76-2.7-3.35.83-6.91-.83-13.18-6.64-12.55-11.02-21.96-17.66-33.88-23.48-14.22-7.271-18.2-8.102-23.01-5.401z" fill="#FBF8F8"/></svg>