<svg width="58" height="22" fill="none" xmlns="http://www.w3.org/2000/svg"><path d="M27.73 0l-5.67 17.07h-4.31L13.93 5.51 9.99 17.07H5.7L0 0h4.16l3.92 12 4.09-12h3.72l3.96 12.1L23.9 0h3.84zM34.09 3.76c2.06 0 3.65.48 4.76 1.46 1.1.96 1.66 2.41 1.66 4.37v7.48h-3.62v-1.63c-.73 1.22-2.08 1.83-4.07 1.83a6.48 6.48 0 01-2.67-.51 3.97 3.97 0 01-1.71-1.42c-.4-.6-.6-1.28-.6-2.05 0-1.22.47-2.18 1.4-2.88.93-.7 2.38-1.04 4.33-1.04h3.07c0-.83-.25-1.47-.77-1.9-.5-.46-1.28-.69-2.3-.69A6.72 6.72 0 0029.73 8l-1.4-2.66c.74-.5 1.6-.9 2.61-1.17 1.03-.28 2.07-.41 3.15-.41zm-.3 10.95c.66 0 1.25-.15 1.76-.44.51-.31.88-.76 1.1-1.34v-1.34h-2.66c-1.59 0-2.38.5-2.38 1.53 0 .49.19.88.57 1.17.4.28.93.42 1.61.42zM57 3.95l-6.02 13.93a6.82 6.82 0 01-2.28 3.2c-.9.61-1.98.92-3.25.92-.7 0-1.38-.1-2.06-.32a4.56 4.56 0 01-1.66-.88l1.42-2.7a3.37 3.37 0 002.18.83c.53 0 .95-.13 1.29-.4.33-.24.62-.65.89-1.24l.05-.12-5.78-13.22h4l3.74 8.9 3.76-8.9H57z" fill="#141517"/><path d="M57.02 3.95l-6.03 13.93a6.81 6.81 0 01-2.28 3.2c-.89.61-1.97.92-3.24.92-.7 0-1.38-.1-2.06-.32a4.57 4.57 0 01-1.66-.88l1.41-2.7a3.37 3.37 0 002.18.83c.53 0 .96-.13 1.3-.4.32-.24.62-.65.88-1.24l.05-.12 1.96-4.32 3.77-8.9h3.72z" fill="#FE7865"/></svg>