<svg width="30" height="30" fill="none" xmlns="http://www.w3.org/2000/svg"><path d="M7.4 8.62c-.09-1.2.18-2.37.88-3.32a4.12 4.12 0 012.36-1.6c.8-.25 1.34.05 1.57.94.33 1.34.8 2.68.98 4.1.05.61-.35 1.5-.78 1.95-1.1 1.07-.87 1.85-.04 3.47.26.53.66 1.43 1.46 2.63.83 1.2 1.26 1.86 2.33 1.3 1.18-.59 2.04-.2 2.93.75.6.7 1.27 1.3 1.87 1.98.87 1.03.83 1.74.15 2.47-1.23 1.34-3.26 1.78-4.77.89a9.7 9.7 0 01-2.32-1.88 29.96 29.96 0 01-6.28-11.54c-.2-.73-.3-1.48-.34-2.14z" stroke="#D7D9DF" stroke-width="2" stroke-miterlimit="10"/></svg>